<?xml version="1.0" standalone="no"?>
<!DOCTYPE svg PUBLIC "-//W3C//DTD SVG 20010904//EN"
 "http://www.w3.org/TR/2001/REC-SVG-20010904/DTD/svg10.dtd">
<svg version="1.0" xmlns="http://www.w3.org/2000/svg"
 width="1040.000000pt" height="437.000000pt" viewBox="0 0 1040.000000 437.000000"
 preserveAspectRatio="xMidYMid meet">

<g transform="translate(0.000000,437.000000) scale(0.100000,-0.100000)"
fill="#000000" stroke="none">
<path d="M6464 3360 c-56 -22 -81 -100 -48 -150 9 -14 238 -247 508 -517 l491
-493 -3708 0 -3707 0 0 -110 0 -110 3707 0 3708 0 -491 -492 c-270 -271 -499
-504 -508 -518 -42 -63 2 -146 82 -157 l44 -6 561 562 c309 308 567 561 572
561 6 0 260 -250 565 -555 305 -305 563 -558 573 -561 35 -11 85 6 111 37 32
38 34 86 4 125 -11 16 -240 248 -507 517 l-486 487 1233 0 1232 0 0 110 0 110
-1232 0 -1233 0 486 488 c267 268 496 500 507 516 30 39 28 87 -4 125 -26 31
-76 48 -111 37 -10 -3 -268 -256 -573 -561 -305 -305 -559 -555 -565 -555 -5
0 -262 252 -570 560 -598 598 -574 577 -641 550z"/>
<path d="M5600 3069 c0 -16 8 -28 23 -34 22 -10 22 -12 25 -260 1 -137 0 -260
-3 -272 -3 -12 -14 -25 -25 -28 -11 -3 -20 -15 -20 -26 0 -18 8 -19 105 -19
97 0 105 1 105 19 0 11 -9 23 -20 26 -27 8 -31 33 -28 140 l3 90 37 -1 c21 -1
44 -7 53 -14 8 -7 38 -56 67 -109 84 -158 77 -151 164 -151 85 0 97 14 40 48
-24 14 -47 43 -73 93 -21 39 -53 92 -72 117 l-34 46 24 15 c72 46 107 127 89
204 -23 105 -76 129 -297 135 l-163 4 0 -23z m306 -64 c63 -41 58 -173 -8
-219 -14 -10 -44 -16 -80 -16 l-58 0 0 123 c0 68 3 127 8 131 11 13 111 -1
138 -19z"/>
</g>
</svg>
